<mxfile host="app.diagrams.net" modified="2024-05-21T22:07:36.481Z" agent="Mozilla/5.0 (Windows NT 10.0; Win64; x64; rv:126.0) Gecko/20100101 Firefox/126.0" etag="1SugMs7uR3RTj48fdPV1" version="24.4.4" type="github">
  <diagram id="C5RBs43oDa-KdzZeNtuy" name="Page-1">
    <mxGraphModel dx="619" dy="647" grid="1" gridSize="10" guides="1" tooltips="1" connect="1" arrows="1" fold="1" page="1" pageScale="1" pageWidth="827" pageHeight="1169" math="0" shadow="0">
      <root>
        <mxCell id="WIyWlLk6GJQsqaUBKTNV-0" />
        <mxCell id="WIyWlLk6GJQsqaUBKTNV-1" parent="WIyWlLk6GJQsqaUBKTNV-0" />
        <mxCell id="eHg_oszsOFh-baLFCK9L-24" value="Carport" style="swimlane;fontStyle=1;align=center;verticalAlign=top;childLayout=stackLayout;horizontal=1;startSize=26;horizontalStack=0;resizeParent=1;resizeParentMax=0;resizeLast=0;collapsible=1;marginBottom=0;whiteSpace=wrap;html=1;" parent="WIyWlLk6GJQsqaUBKTNV-1" vertex="1">
          <mxGeometry x="770" y="60" width="180" height="260" as="geometry" />
        </mxCell>
        <mxCell id="eHg_oszsOFh-baLFCK9L-25" value="- double carportWidth;&lt;br&gt;&lt;div&gt;&lt;div&gt;- double carportLength;&lt;br&gt;&lt;/div&gt;&lt;div&gt;&lt;div&gt;&amp;nbsp;- int post;&lt;br&gt;&lt;/div&gt;&lt;div&gt;&lt;div&gt;&amp;nbsp;- int strap;&lt;/div&gt;&lt;div&gt;&amp;nbsp;- int strap;&lt;/div&gt;&lt;/div&gt;&lt;div&gt;&lt;div&gt;&amp;nbsp;- int rafterWood;&lt;/div&gt;&lt;/div&gt;&lt;/div&gt;&lt;/div&gt;&lt;div&gt;&lt;br&gt;&lt;/div&gt;" style="text;strokeColor=none;fillColor=none;align=left;verticalAlign=top;spacingLeft=4;spacingRight=4;overflow=hidden;rotatable=0;points=[[0,0.5],[1,0.5]];portConstraint=eastwest;whiteSpace=wrap;html=1;" parent="eHg_oszsOFh-baLFCK9L-24" vertex="1">
          <mxGeometry y="26" width="180" height="94" as="geometry" />
        </mxCell>
        <mxCell id="eHg_oszsOFh-baLFCK9L-26" value="" style="line;strokeWidth=1;fillColor=none;align=left;verticalAlign=middle;spacingTop=-1;spacingLeft=3;spacingRight=3;rotatable=0;labelPosition=right;points=[];portConstraint=eastwest;strokeColor=inherit;" parent="eHg_oszsOFh-baLFCK9L-24" vertex="1">
          <mxGeometry y="120" width="180" height="8" as="geometry" />
        </mxCell>
        <mxCell id="eHg_oszsOFh-baLFCK9L-27" value="&lt;div&gt;+ double: getCarportWidth()&lt;/div&gt;&lt;div&gt;+ setCarportWidth(double)&lt;br&gt;&lt;/div&gt;&lt;div&gt;&lt;div&gt;+ double: getCarportLength()&lt;/div&gt;&lt;div&gt;+ setCarportLength(double)&lt;/div&gt;&lt;div&gt;&lt;div&gt;+ int: getPost()&lt;/div&gt;&lt;div&gt;+ setPost(int)&lt;/div&gt;&lt;div&gt;&lt;div&gt;+ int: getStrap()&lt;br&gt;&lt;/div&gt;&lt;div&gt;+ setStrap(int)&lt;br&gt;&lt;/div&gt;&lt;/div&gt;&lt;/div&gt;&lt;/div&gt;" style="text;strokeColor=none;fillColor=none;align=left;verticalAlign=top;spacingLeft=4;spacingRight=4;overflow=hidden;rotatable=0;points=[[0,0.5],[1,0.5]];portConstraint=eastwest;whiteSpace=wrap;html=1;" parent="eHg_oszsOFh-baLFCK9L-24" vertex="1">
          <mxGeometry y="128" width="180" height="132" as="geometry" />
        </mxCell>
        <mxCell id="eHg_oszsOFh-baLFCK9L-28" value="User" style="swimlane;fontStyle=1;align=center;verticalAlign=top;childLayout=stackLayout;horizontal=1;startSize=26;horizontalStack=0;resizeParent=1;resizeParentMax=0;resizeLast=0;collapsible=1;marginBottom=0;whiteSpace=wrap;html=1;" parent="WIyWlLk6GJQsqaUBKTNV-1" vertex="1">
          <mxGeometry x="590" y="310" width="160" height="200" as="geometry" />
        </mxCell>
        <mxCell id="eHg_oszsOFh-baLFCK9L-29" value="&lt;div&gt;&lt;b&gt;private&lt;/b&gt; - String firstName;&lt;/div&gt;&lt;div&gt;&lt;div&gt;&lt;b&gt;private&lt;/b&gt; - String lastName;&lt;/div&gt;&lt;div&gt;&lt;div&gt;&lt;b&gt;private&lt;/b&gt; - String city;&lt;/div&gt;&lt;div&gt;&lt;b&gt;private&lt;/b&gt; - int zipcode;&lt;/div&gt;&lt;div&gt;&lt;div&gt;&lt;b&gt;private&lt;/b&gt; - String email;&lt;/div&gt;&lt;div&gt;&lt;b&gt;private&lt;/b&gt; - int phonenumber;&lt;br&gt;&lt;/div&gt;&lt;div&gt;&lt;br&gt;&lt;/div&gt;&lt;/div&gt;&lt;/div&gt;&lt;/div&gt;&lt;div&gt;&lt;br&gt;&lt;/div&gt;" style="text;strokeColor=none;fillColor=none;align=left;verticalAlign=top;spacingLeft=4;spacingRight=4;overflow=hidden;rotatable=0;points=[[0,0.5],[1,0.5]];portConstraint=eastwest;whiteSpace=wrap;html=1;" parent="eHg_oszsOFh-baLFCK9L-28" vertex="1">
          <mxGeometry y="26" width="160" height="114" as="geometry" />
        </mxCell>
        <mxCell id="eHg_oszsOFh-baLFCK9L-30" value="" style="line;strokeWidth=1;fillColor=none;align=left;verticalAlign=middle;spacingTop=-1;spacingLeft=3;spacingRight=3;rotatable=0;labelPosition=right;points=[];portConstraint=eastwest;strokeColor=inherit;" parent="eHg_oszsOFh-baLFCK9L-28" vertex="1">
          <mxGeometry y="140" width="160" height="8" as="geometry" />
        </mxCell>
        <mxCell id="eHg_oszsOFh-baLFCK9L-31" value="&lt;b&gt;- orderCarport();&lt;/b&gt;" style="text;strokeColor=none;fillColor=none;align=left;verticalAlign=top;spacingLeft=4;spacingRight=4;overflow=hidden;rotatable=0;points=[[0,0.5],[1,0.5]];portConstraint=eastwest;whiteSpace=wrap;html=1;" parent="eHg_oszsOFh-baLFCK9L-28" vertex="1">
          <mxGeometry y="148" width="160" height="52" as="geometry" />
        </mxCell>
        <mxCell id="eHg_oszsOFh-baLFCK9L-32" value="MaterialList" style="swimlane;fontStyle=1;align=center;verticalAlign=top;childLayout=stackLayout;horizontal=1;startSize=26;horizontalStack=0;resizeParent=1;resizeParentMax=0;resizeLast=0;collapsible=1;marginBottom=0;whiteSpace=wrap;html=1;" parent="WIyWlLk6GJQsqaUBKTNV-1" vertex="1">
          <mxGeometry x="325" y="600" width="160" height="160" as="geometry" />
        </mxCell>
        <mxCell id="eHg_oszsOFh-baLFCK9L-33" value="&lt;div&gt;&lt;b&gt;private&lt;/b&gt; - String component;&lt;/div&gt;&lt;div&gt;&lt;div&gt;&lt;b&gt;private&lt;/b&gt; - int amount;&lt;/div&gt;&lt;div&gt;&lt;div&gt;&lt;b&gt;private&lt;/b&gt; - int price;&lt;div&gt;&lt;br&gt;&lt;/div&gt;&lt;/div&gt;&lt;/div&gt;&lt;/div&gt;&lt;div&gt;&lt;br&gt;&lt;/div&gt;" style="text;strokeColor=none;fillColor=none;align=left;verticalAlign=top;spacingLeft=4;spacingRight=4;overflow=hidden;rotatable=0;points=[[0,0.5],[1,0.5]];portConstraint=eastwest;whiteSpace=wrap;html=1;" parent="eHg_oszsOFh-baLFCK9L-32" vertex="1">
          <mxGeometry y="26" width="160" height="64" as="geometry" />
        </mxCell>
        <mxCell id="eHg_oszsOFh-baLFCK9L-34" value="" style="line;strokeWidth=1;fillColor=none;align=left;verticalAlign=middle;spacingTop=-1;spacingLeft=3;spacingRight=3;rotatable=0;labelPosition=right;points=[];portConstraint=eastwest;strokeColor=inherit;" parent="eHg_oszsOFh-baLFCK9L-32" vertex="1">
          <mxGeometry y="90" width="160" height="8" as="geometry" />
        </mxCell>
        <mxCell id="eHg_oszsOFh-baLFCK9L-35" value="&lt;div&gt;&lt;b&gt;- addComponent();&lt;/b&gt;&lt;/div&gt;&lt;div&gt;&lt;b&gt;- removeComponent();&lt;/b&gt;&lt;/div&gt;&lt;div&gt;&lt;b&gt;- calculateMaterialList();&lt;br&gt;&lt;/b&gt;&lt;/div&gt;&lt;div&gt;&lt;b&gt;&lt;br&gt;&lt;br&gt;&lt;/b&gt;&lt;/div&gt;" style="text;strokeColor=none;fillColor=none;align=left;verticalAlign=top;spacingLeft=4;spacingRight=4;overflow=hidden;rotatable=0;points=[[0,0.5],[1,0.5]];portConstraint=eastwest;whiteSpace=wrap;html=1;" parent="eHg_oszsOFh-baLFCK9L-32" vertex="1">
          <mxGeometry y="98" width="160" height="62" as="geometry" />
        </mxCell>
        <mxCell id="eHg_oszsOFh-baLFCK9L-41" value="Calculater" style="swimlane;fontStyle=1;align=center;verticalAlign=top;childLayout=stackLayout;horizontal=1;startSize=26;horizontalStack=0;resizeParent=1;resizeParentMax=0;resizeLast=0;collapsible=1;marginBottom=0;whiteSpace=wrap;html=1;" parent="WIyWlLk6GJQsqaUBKTNV-1" vertex="1">
          <mxGeometry x="730" y="585" width="160" height="130" as="geometry" />
        </mxCell>
        <mxCell id="eHg_oszsOFh-baLFCK9L-42" value="&lt;div&gt;&lt;div&gt;&lt;b&gt;private&lt;/b&gt; - int calculate;&lt;/div&gt;&lt;/div&gt;&lt;div&gt;&lt;br&gt;&lt;/div&gt;" style="text;strokeColor=none;fillColor=none;align=left;verticalAlign=top;spacingLeft=4;spacingRight=4;overflow=hidden;rotatable=0;points=[[0,0.5],[1,0.5]];portConstraint=eastwest;whiteSpace=wrap;html=1;" parent="eHg_oszsOFh-baLFCK9L-41" vertex="1">
          <mxGeometry y="26" width="160" height="44" as="geometry" />
        </mxCell>
        <mxCell id="eHg_oszsOFh-baLFCK9L-43" value="" style="line;strokeWidth=1;fillColor=none;align=left;verticalAlign=middle;spacingTop=-1;spacingLeft=3;spacingRight=3;rotatable=0;labelPosition=right;points=[];portConstraint=eastwest;strokeColor=inherit;" parent="eHg_oszsOFh-baLFCK9L-41" vertex="1">
          <mxGeometry y="70" width="160" height="8" as="geometry" />
        </mxCell>
        <mxCell id="eHg_oszsOFh-baLFCK9L-44" value="&lt;b&gt;- calculatePrice();&lt;br&gt;&lt;/b&gt;" style="text;strokeColor=none;fillColor=none;align=left;verticalAlign=top;spacingLeft=4;spacingRight=4;overflow=hidden;rotatable=0;points=[[0,0.5],[1,0.5]];portConstraint=eastwest;whiteSpace=wrap;html=1;" parent="eHg_oszsOFh-baLFCK9L-41" vertex="1">
          <mxGeometry y="78" width="160" height="52" as="geometry" />
        </mxCell>
        <mxCell id="eHg_oszsOFh-baLFCK9L-49" value="Order" style="swimlane;fontStyle=1;align=center;verticalAlign=top;childLayout=stackLayout;horizontal=1;startSize=26;horizontalStack=0;resizeParent=1;resizeParentMax=0;resizeLast=0;collapsible=1;marginBottom=0;whiteSpace=wrap;html=1;" parent="WIyWlLk6GJQsqaUBKTNV-1" vertex="1">
          <mxGeometry x="980" y="60" width="140" height="220" as="geometry" />
        </mxCell>
        <mxCell id="eHg_oszsOFh-baLFCK9L-50" value="&lt;div&gt;- int orderNumber;&lt;/div&gt;&lt;div&gt;- int userNumber;&lt;/div&gt;&lt;div&gt;- double price;&lt;/div&gt;&lt;div&gt;- double width;&lt;/div&gt;&lt;div&gt;- double length;&lt;br&gt;&lt;/div&gt;" style="text;strokeColor=none;fillColor=none;align=left;verticalAlign=top;spacingLeft=4;spacingRight=4;overflow=hidden;rotatable=0;points=[[0,0.5],[1,0.5]];portConstraint=eastwest;whiteSpace=wrap;html=1;" parent="eHg_oszsOFh-baLFCK9L-49" vertex="1">
          <mxGeometry y="26" width="140" height="84" as="geometry" />
        </mxCell>
        <mxCell id="eHg_oszsOFh-baLFCK9L-51" value="" style="line;strokeWidth=1;fillColor=none;align=left;verticalAlign=middle;spacingTop=-1;spacingLeft=3;spacingRight=3;rotatable=0;labelPosition=right;points=[];portConstraint=eastwest;strokeColor=inherit;" parent="eHg_oszsOFh-baLFCK9L-49" vertex="1">
          <mxGeometry y="110" width="140" height="8" as="geometry" />
        </mxCell>
        <mxCell id="eHg_oszsOFh-baLFCK9L-52" value="&lt;div&gt;+ int: getOrderNumber()&lt;/div&gt;&lt;div&gt;+ int: getUserNumber()&lt;/div&gt;&lt;div&gt;+ double: getPrice()&lt;/div&gt;&lt;div&gt;+ double: getWidth()&lt;/div&gt;&lt;div&gt;+ double: getLength()&lt;/div&gt;" style="text;strokeColor=none;fillColor=none;align=left;verticalAlign=top;spacingLeft=4;spacingRight=4;overflow=hidden;rotatable=0;points=[[0,0.5],[1,0.5]];portConstraint=eastwest;whiteSpace=wrap;html=1;" parent="eHg_oszsOFh-baLFCK9L-49" vertex="1">
          <mxGeometry y="118" width="140" height="102" as="geometry" />
        </mxCell>
        <mxCell id="eHg_oszsOFh-baLFCK9L-53" value="Drawing" style="swimlane;fontStyle=1;align=center;verticalAlign=top;childLayout=stackLayout;horizontal=1;startSize=26;horizontalStack=0;resizeParent=1;resizeParentMax=0;resizeLast=0;collapsible=1;marginBottom=0;whiteSpace=wrap;html=1;" parent="WIyWlLk6GJQsqaUBKTNV-1" vertex="1">
          <mxGeometry x="50" y="610" width="160" height="170" as="geometry" />
        </mxCell>
        <mxCell id="eHg_oszsOFh-baLFCK9L-54" value="&lt;div&gt;&lt;div&gt;&lt;b&gt;private&lt;/b&gt; - int drawingWidth;&lt;/div&gt;&lt;/div&gt;&lt;div&gt;&lt;div&gt;&lt;b&gt;private&lt;/b&gt; - int drawingHeight;&lt;br&gt;&lt;br&gt;&lt;/div&gt;&lt;/div&gt;" style="text;strokeColor=none;fillColor=none;align=left;verticalAlign=top;spacingLeft=4;spacingRight=4;overflow=hidden;rotatable=0;points=[[0,0.5],[1,0.5]];portConstraint=eastwest;whiteSpace=wrap;html=1;" parent="eHg_oszsOFh-baLFCK9L-53" vertex="1">
          <mxGeometry y="26" width="160" height="84" as="geometry" />
        </mxCell>
        <mxCell id="eHg_oszsOFh-baLFCK9L-55" value="" style="line;strokeWidth=1;fillColor=none;align=left;verticalAlign=middle;spacingTop=-1;spacingLeft=3;spacingRight=3;rotatable=0;labelPosition=right;points=[];portConstraint=eastwest;strokeColor=inherit;" parent="eHg_oszsOFh-baLFCK9L-53" vertex="1">
          <mxGeometry y="110" width="160" height="8" as="geometry" />
        </mxCell>
        <mxCell id="eHg_oszsOFh-baLFCK9L-56" value="+ method(type): type" style="text;strokeColor=none;fillColor=none;align=left;verticalAlign=top;spacingLeft=4;spacingRight=4;overflow=hidden;rotatable=0;points=[[0,0.5],[1,0.5]];portConstraint=eastwest;whiteSpace=wrap;html=1;" parent="eHg_oszsOFh-baLFCK9L-53" vertex="1">
          <mxGeometry y="118" width="160" height="52" as="geometry" />
        </mxCell>
        <mxCell id="eHg_oszsOFh-baLFCK9L-57" value="Main" style="swimlane;fontStyle=1;align=center;verticalAlign=top;childLayout=stackLayout;horizontal=1;startSize=26;horizontalStack=0;resizeParent=1;resizeParentMax=0;resizeLast=0;collapsible=1;marginBottom=0;whiteSpace=wrap;html=1;" parent="WIyWlLk6GJQsqaUBKTNV-1" vertex="1">
          <mxGeometry x="50" y="40" width="190" height="104" as="geometry" />
        </mxCell>
        <mxCell id="eHg_oszsOFh-baLFCK9L-58" value="static void main(String[] args)" style="text;strokeColor=none;fillColor=none;align=left;verticalAlign=top;spacingLeft=4;spacingRight=4;overflow=hidden;rotatable=0;points=[[0,0.5],[1,0.5]];portConstraint=eastwest;whiteSpace=wrap;html=1;" parent="eHg_oszsOFh-baLFCK9L-57" vertex="1">
          <mxGeometry y="26" width="190" height="24" as="geometry" />
        </mxCell>
        <mxCell id="eHg_oszsOFh-baLFCK9L-59" value="" style="line;strokeWidth=1;fillColor=none;align=left;verticalAlign=middle;spacingTop=-1;spacingLeft=3;spacingRight=3;rotatable=0;labelPosition=right;points=[];portConstraint=eastwest;strokeColor=inherit;" parent="eHg_oszsOFh-baLFCK9L-57" vertex="1">
          <mxGeometry y="50" width="190" height="30" as="geometry" />
        </mxCell>
        <mxCell id="cWru3RgEuK0rnWJnFXiX-1" value="connectionPool: ConnectionPool" style="text;strokeColor=none;fillColor=none;align=left;verticalAlign=top;spacingLeft=4;spacingRight=4;overflow=hidden;rotatable=0;points=[[0,0.5],[1,0.5]];portConstraint=eastwest;whiteSpace=wrap;html=1;" vertex="1" parent="eHg_oszsOFh-baLFCK9L-57">
          <mxGeometry y="80" width="190" height="24" as="geometry" />
        </mxCell>
      </root>
    </mxGraphModel>
  </diagram>
</mxfile>
